<svg viewBox="0 0 200 200" xmlns="http://www.w3.org/2000/svg" width="200" height="200">
  <defs>
    <radialGradient id="bgGrad" cx="50%" cy="60%" r="65%">
      <stop offset="0%" stop-color="#1e2540"></stop>
      <stop offset="100%" stop-color="#0d1117"></stop>
    </radialGradient>
    <radialGradient id="skinGrad" cx="45%" cy="40%" r="70%">
      <stop offset="0%" stop-color="#e8b895"></stop>
      <stop offset="100%" stop-color="#c48d66"></stop>
    </radialGradient>
    <linearGradient id="hoodieGrad" x1="0" y1="0" x2="0" y2="1">
      <stop offset="0%" stop-color="#5a6342"></stop>
      <stop offset="100%" stop-color="#3d4530"></stop>
    </linearGradient>
    <linearGradient id="hoodieShade" x1="0" y1="0" x2="1" y2="1">
      <stop offset="0%" stop-color="rgba(0,0,0,0)"></stop>
      <stop offset="100%" stop-color="rgba(0,0,0,0.25)"></stop>
    </linearGradient>
    <clipPath id="circle"><circle cx="100" cy="100" r="100"></circle></clipPath>
  </defs>
  <g clip-path="url(#circle)">
    
    <rect width="200" height="200" fill="url(#bgGrad)"></rect>

    
    <path d="M30,200 Q30,150 55,138 L70,135 Q85,170 100,170 Q115,170 130,135 L145,138 Q170,150 170,200 Z" fill="url(#hoodieGrad)"></path>
    <path d="M30,200 Q30,150 55,138 L70,135 Q85,170 100,170 Q115,170 130,135 L145,138 Q170,150 170,200 Z" fill="url(#hoodieShade)"></path>

    
    <path d="M50,138 Q62,120 75,118 L80,140 Z" fill="#4a5236"></path>
    <path d="M150,138 Q138,120 125,118 L120,140 Z" fill="#4a5236"></path>

    
    <path d="M88,138 L100,156 L112,138 L108,160 L92,160 Z" fill="#5a2838"></path>
    
    <path d="M91,143 Q92,160 90,175" fill="none" stroke="#f5f5f5" stroke-width="1.2" opacity="0.85"></path>
    <path d="M109,143 Q108,160 110,175" fill="none" stroke="#f5f5f5" stroke-width="1.2" opacity="0.85"></path>
    <circle cx="90" cy="177" r="1.8" fill="#f5f5f5"></circle>
    <circle cx="110" cy="177" r="1.8" fill="#f5f5f5"></circle>

    
    <path d="M68,182 Q80,178 92,182 Q104,186 116,182 Q128,178 140,182" fill="none" stroke="#f0f0f0" stroke-width="1.6" stroke-linecap="round"></path>

    
    <path d="M86,130 Q87,146 92,154 L108,154 Q113,146 114,130 Z" fill="#c48d66"></path>
    <ellipse cx="100" cy="132" rx="14" ry="4" fill="#a67450" opacity="0.4"></ellipse>

    
    <ellipse cx="100" cy="100" rx="42" ry="50" fill="url(#skinGrad)"></ellipse>
    
    <ellipse cx="100" cy="132" rx="32" ry="14" fill="#d29b72"></ellipse>

    
    <ellipse cx="58" cy="104" rx="6" ry="10" fill="#c48d66"></ellipse>
    <ellipse cx="142" cy="104" rx="6" ry="10" fill="#c48d66"></ellipse>
    <ellipse cx="59" cy="105" rx="3" ry="6" fill="#a67450"></ellipse>
    <ellipse cx="141" cy="105" rx="3" ry="6" fill="#a67450"></ellipse>

    
    
    <path d="M54,90 Q48,55 78,42 Q100,35 122,42 Q152,55 146,90 Q140,70 130,62 Q118,55 100,55 Q82,55 70,62 Q60,70 54,90 Z" fill="#1a120a"></path>
    
    <path d="M72,62 Q88,42 118,40 Q138,44 142,60 Q130,48 110,48 Q90,50 78,62 Z" fill="#241810"></path>
    
    <path d="M56,95 Q52,70 60,58 Q62,82 58,100 Z" fill="#1a120a"></path>
    <path d="M144,95 Q148,70 140,58 Q138,82 142,100 Z" fill="#1a120a"></path>
    
    <path d="M78,58 Q98,46 126,52" fill="none" stroke="#3a2510" stroke-width="1.3" opacity="0.55"></path>
    <path d="M72,70 Q92,58 120,62" fill="none" stroke="#3a2510" stroke-width="1" opacity="0.4"></path>
    <path d="M64,82 Q82,72 102,74" fill="none" stroke="#3a2510" stroke-width="0.8" opacity="0.35"></path>
    
    <path d="M64,80 Q82,72 100,72 Q118,72 136,80" fill="none" stroke="#0f0805" stroke-width="1" opacity="0.5"></path>

    
    <path d="M72,88 Q84,84 94,87" fill="none" stroke="#1a120a" stroke-width="4" stroke-linecap="round"></path>
    <path d="M106,87 Q116,84 128,88" fill="none" stroke="#1a120a" stroke-width="4" stroke-linecap="round"></path>

    
    
    <ellipse cx="82" cy="98" rx="10" ry="7" fill="#ffffff"></ellipse>
    <ellipse cx="82" cy="99" rx="6.5" ry="6.5" fill="#4a2d15"></ellipse>
    <ellipse cx="82" cy="99" rx="4.5" ry="4.5" fill="#2a180a"></ellipse>
    <ellipse cx="82" cy="99" rx="2.5" ry="2.5" fill="#0a0500"></ellipse>
    <ellipse cx="79.5" cy="96.5" rx="1.5" ry="1.5" fill="rgba(255,255,255,0.85)"></ellipse>
    <path d="M72,93 Q82,89 93,93" fill="none" stroke="#1a120a" stroke-width="1.5" stroke-linecap="round"></path>
    
    <ellipse cx="118" cy="98" rx="10" ry="7" fill="#ffffff"></ellipse>
    <ellipse cx="118" cy="99" rx="6.5" ry="6.5" fill="#4a2d15"></ellipse>
    <ellipse cx="118" cy="99" rx="4.5" ry="4.5" fill="#2a180a"></ellipse>
    <ellipse cx="118" cy="99" rx="2.5" ry="2.5" fill="#0a0500"></ellipse>
    <ellipse cx="115.5" cy="96.5" rx="1.5" ry="1.5" fill="rgba(255,255,255,0.85)"></ellipse>
    <path d="M107,93 Q118,89 128,93" fill="none" stroke="#1a120a" stroke-width="1.5" stroke-linecap="round"></path>

    
    <path d="M97,108 Q100,120 103,108" fill="none" stroke="#a67450" stroke-width="1.5" stroke-linecap="round" opacity="0.7"></path>
    <ellipse cx="100" cy="118" rx="6" ry="4" fill="#b87a54" opacity="0.45"></ellipse>
    <circle cx="96" cy="119" r="1.5" fill="#8a5a38" opacity="0.55"></circle>
    <circle cx="104" cy="119" r="1.5" fill="#8a5a38" opacity="0.55"></circle>

    
    <ellipse cx="100" cy="127" rx="24" ry="10" fill="#1a120a" opacity="0.22"></ellipse>
    <path d="M82,123 Q91,126 100,125 Q109,126 118,123 Q112,128 100,128 Q88,128 82,123 Z" fill="#1a120a" opacity="0.55"></path>
    
    <ellipse cx="100" cy="135" rx="14" ry="7" fill="#1a120a" opacity="0.35"></ellipse>
    
    <g fill="#1a120a" opacity="0.45">
      <circle cx="78" cy="122" r="0.9"></circle>
      <circle cx="82" cy="126" r="0.9"></circle>
      <circle cx="86" cy="130" r="0.9"></circle>
      <circle cx="122" cy="122" r="0.9"></circle>
      <circle cx="118" cy="126" r="0.9"></circle>
      <circle cx="114" cy="130" r="0.9"></circle>
      <circle cx="92" cy="133" r="0.9"></circle>
      <circle cx="108" cy="133" r="0.9"></circle>
      <circle cx="100" cy="138" r="0.9"></circle>
    </g>

    
    <path d="M90,128 Q100,135 110,128" fill="none" stroke="#6a3020" stroke-width="1.8" stroke-linecap="round"></path>
    <path d="M91,129 Q100,133 109,129" fill="#c27060" opacity="0.5"></path>
    
    <path d="M94,129 Q100,132 106,129" fill="#f5ebe0" opacity="0.55"></path>

    
    <ellipse cx="72" cy="110" rx="8" ry="14" fill="rgba(180,100,60,0.18)"></ellipse>
    <ellipse cx="128" cy="110" rx="8" ry="14" fill="rgba(180,100,60,0.18)"></ellipse>
    
    <ellipse cx="76" cy="116" rx="5" ry="4" fill="rgba(224,120,90,0.25)"></ellipse>
    <ellipse cx="124" cy="116" rx="5" ry="4" fill="rgba(224,120,90,0.25)"></ellipse>
  </g>
</svg>